<svg xmlns="http://www.w3.org/2000/svg" version="1.1" xmlns:xlink="http://www.w3.org/1999/xlink" width="512" height="512" x="0" y="0" viewBox="0 0 16.933 16.933" style="enable-background:new 0 0 512 512" xml:space="preserve" class=""><g transform="matrix(1.04,0,0,1.04,-0.33867999076843347,-0.3277639651298543)"><path d="M.53 15.08c0 .583.478 1.06 1.06 1.06h13.755c.582 0 1.059-.477 1.059-1.06V5.556a.265.265 0 0 0-.264-.263l-14.137.004L15.138 2.39a.265.265 0 0 0 .207-.26v-.808c0-.294-.113-.575-.306-.783a.885.885 0 0 0-.58-.289.747.747 0 0 0-.235.021L1.525 3.446c-.243.06-.48.162-.67.332a.967.967 0 0 0-.324.719V15.08zM14.43.778c.077.003.147.044.22.122a.675.675 0 0 1 .166.424v.598l-.262.058c-.207-.2-.723-.706-1.013-.99l.81-.203a.274.274 0 0 1 .08-.009zm-1.492.362.999.976-1.366.302-1.105-.91zm-2.11.528 1.087.895-1.524.337-1.044-.862zm-2.118.529 1.025.848-1.496.33-1.003-.81zm-2.117.529.983.796-1.492.33-.96-.76zm-2.117.53.941.743-1.464.324-.933-.704zm-2.116.528.914.69-2.214.489v-.465c0-.146.048-.235.149-.325.1-.09.261-.166.445-.212zM15.874 5.82v1.059H13.53l.882-1.059zm-2.152 0-.88 1.059h-1.428l.881-1.058zm-2.117.001-.881 1.058H9.298l.88-1.057zm-2.117.001-.88 1.057H7.181l.878-1.056zm-2.118.001-.879 1.056H5.064l.88-1.055zm-2.118.001-.878 1.055H2.947l.879-1.054zm-2.116.001-.88 1.054H1.06V5.825zM1.06 7.407h14.814v7.674c0 .297-.231.529-.529.529H1.59a.522.522 0 0 1-.53-.53zm3.967 2.11c-.345.007-.345.52 0 .528h6.88c.346-.008.346-.521 0-.529zm0 1.587c-.345.008-.345.522 0 .53h6.88c.346-.009.346-.522 0-.53zm0 2.117h6.88c.361.008.361-.537 0-.529H5.015c-.358 0-.332.538.013.53z" paint-order="stroke fill markers" fill="#f07777" opacity="1" data-original="#000000"></path></g></svg>