<svg xmlns="http://www.w3.org/2000/svg" version="1.1" xmlns:xlink="http://www.w3.org/1999/xlink" width="512" height="512" x="0" y="0" viewBox="0 0 64 64" style="enable-background:new 0 0 512 512" xml:space="preserve" class=""><g><path d="M10 60h11v2a1 1 0 0 0 1 1h7a1 1 0 0 0 1-1v-1h1.764l3.789 1.9A1 1 0 0 0 36 63h11a3 3 0 0 0 3-3V48a3 3 0 0 0-3-3h-1v-8h6a3 3 0 0 0 3-3v-6a3 3 0 0 0-3-3h-6v-4.1a5.009 5.009 0 0 0 4-4.9V6a5.006 5.006 0 0 0-5-5h-6a5.006 5.006 0 0 0-5 5v10a5.009 5.009 0 0 0 4 4.9V25h-6a3 3 0 0 0-3 3v6a3 3 0 0 0 3 3h6v4h-2a1 1 0 0 0-.707.293L31.586 45H30v-1a1 1 0 0 0-1-1h-7a1 1 0 0 0-1 1v2H10a1 1 0 0 0-1 1v12a1 1 0 0 0 1 1zm34-9h4v2h-8v-1.184A2.966 2.966 0 0 0 41 52h2a1 1 0 0 0 1-1zm4 6h-8v-2h8zm0 3a1 1 0 0 1-1 1h-7v-2h8zm0-12v1h-4v-2h3a1 1 0 0 1 1 1zM36 16V6a3 3 0 0 1 3-3h6a3 3 0 0 1 3 3v10a3 3 0 0 1-3 3h-6a3 3 0 0 1-3-3zm4 5h4v4h-4zm-9 13v-6a1 1 0 0 1 1-1h20a1 1 0 0 1 1 1v6a1 1 0 0 1-1 1H32a1 1 0 0 1-1-1zm9 3h4v7a3 3 0 0 0-3-3h-1zm-8 10a1 1 0 0 0 .707-.293L36.414 43H41a1 1 0 0 1 1 1v6h-1a1 1 0 0 1-1-1v-3h-2v1a4 4 0 0 1-4 4v2a5.969 5.969 0 0 0 4-1.54V61h-1.764l-3.789-1.9A1 1 0 0 0 32 59h-2V47zm-9-2h5v16h-5zm-12 3h10v10H11z" fill="#f07777" opacity="1" data-original="#000000"></path></g></svg>