<svg xmlns="http://www.w3.org/2000/svg" version="1.1" xmlns:xlink="http://www.w3.org/1999/xlink" width="512" height="512" x="0" y="0" viewBox="0 0 64 64" style="enable-background:new 0 0 512 512" xml:space="preserve" class=""><g transform="matrix(1.06,0,0,1.06,-1.9190976905822694,-1.919950039386734)"><path d="M27.153 20.026c.882.032 1.36-1.176.663-1.749-2.006-1.78-4.404-1.781-6.413 0a1 1 0 1 0 1.326 1.497c1.25-1.107 2.514-1.106 3.761 0 .19.168.427.252.663.252z" fill="#f07777" opacity="1" data-original="#000000"></path><path d="M61.886 10.664a.997.997 0 0 0-.57-.51L38.278 2.056a.996.996 0 0 0-1.275.612l-2.179 6.2h-15.81a1 1 0 0 0-1 1v10.56c0 3.98 1.21 7.847 3.502 11.18 5.303 7.352 11.31 9.59 17.821 2.02a7.478 7.478 0 0 0 5.186.441c6.535-1.751 11.732-6.49 13.902-12.676l3.503-9.966a.998.998 0 0 0-.042-.764zM34.312 27.656c.194.416.402.824.623 1.225-1.895 3.36-7.138 2.474-7.937-1.225zm.079 7.691c-4.33 3.039-8.83-1.473-11.226-4.87-2.061-3-3.151-6.474-3.151-10.048v-9.56H34.12c-1.929 4.673-2.355 9.923-.622 14.787h-7.617a1 1 0 0 0-1 1c-.062 5.836 7.495 8.588 11.195 4.084a9.213 9.213 0 0 0 1.563 1.804 18.805 18.805 0 0 1-3.25 2.803zm22.147-14.615c-1.952 5.562-6.637 9.827-12.532 11.407-3.068.92-5.766-1.124-7.071-3.767a18.949 18.949 0 0 1-1.066-2.104v-.001c-1.752-4.114-1.962-8.812-.482-12.968.007-.007 1.095-3.107 1.096-3.12l2.076-5.904 21.15 7.434z" fill="#f07777" opacity="1" data-original="#000000"></path><path d="M39.193 20.173c-1.622-.396-1.615 1.977-1.63 3.033.108 2.508 1.827 4.805 4.193 5.645 3.194 1.221 7.06-.605 8.126-3.86a1.006 1.006 0 0 0-.615-1.277zm4.818 7.046a4.28 4.28 0 0 1-1.544-.237l-.06-.023c-1.83-.652-3.048-2.596-2.826-4.53l7.971 2.802c-.74 1.186-2.13 1.975-3.54 1.988zM36.864 13.03a1 1 0 0 0 1.304.547c1.541-.63 2.737-.211 3.548 1.247.645 1.142 2.378.17 1.748-.972-1.306-2.346-3.567-3.141-6.052-2.126a1 1 0 0 0-.548 1.303zM50.646 17.963c1.55-.63 2.739-.21 3.548 1.247a1 1 0 0 0 1.748-.972c-1.303-2.346-3.567-3.143-6.051-2.127-1.208.517-.471 2.328.755 1.852zM14.302 26.819a.18.18 0 0 1-.059-.064l-2.702-2.702c-5.365-5.059-12.947 2.508-7.893 7.894.063.035 2.665 2.702 2.738 2.726.002.053 6.564 5.504 6.585 5.545V60H9.494a1 1 0 1 0 0 2h8.953a1 1 0 1 0 0-2h-3.476V41.898l4.998 4.2a1 1 0 0 0 1.35-.058l4.316-4.316a1 1 0 0 0 .058-1.35zm-9.24-1.351c1.336-1.396 3.734-1.39 5.065 0l1.995 1.995-5.065 5.065-1.995-1.995a3.585 3.585 0 0 1 0-5.065zm15.492 18.51-12.019-10.1 4.937-4.937 10.1 12.018z" fill="#f07777" opacity="1" data-original="#000000"></path></g></svg>