<svg xmlns="http://www.w3.org/2000/svg" version="1.1" xmlns:xlink="http://www.w3.org/1999/xlink" width="512" height="512" x="0" y="0" viewBox="0 0 682.667 682.667" style="enable-background:new 0 0 512 512" xml:space="preserve" class=""><g><defs><clipPath id="a" clipPathUnits="userSpaceOnUse"><path d="M0 512h512V0H0Z" fill="#f07777" opacity="1" data-original="#000000"></path></clipPath></defs><path d="m0 0-49.408-49.385" style="stroke-width:20.176;stroke-linecap:round;stroke-linejoin:round;stroke-miterlimit:10;stroke-dasharray:none;stroke-opacity:1" transform="matrix(1.33333 0 0 -1.33333 374.272 308.41)" fill="none" stroke="#f07777" stroke-width="20.176" stroke-linecap="round" stroke-linejoin="round" stroke-miterlimit="10" stroke-dasharray="none" stroke-opacity="" data-original="#000000" opacity="1"></path><g clip-path="url(#a)" transform="matrix(1.33333 0 0 -1.33333 0 682.667)"><path d="M0 0s57.487 1.672 67.097 57.317" style="stroke-width:20.176;stroke-linecap:round;stroke-linejoin:round;stroke-miterlimit:10;stroke-dasharray:none;stroke-opacity:1" transform="translate(10 15)" fill="none" stroke="#f07777" stroke-width="20.176" stroke-linecap="round" stroke-linejoin="round" stroke-miterlimit="10" stroke-dasharray="none" stroke-opacity="" data-original="#000000" opacity="1"></path><path d="M0 0v38.617C0 68.707-41.782 93.3-71.887 93.3V-52.897" style="stroke-width:20.176;stroke-linecap:round;stroke-linejoin:round;stroke-miterlimit:10;stroke-dasharray:none;stroke-opacity:1" transform="translate(492.345 122.778)" fill="none" stroke="#f07777" stroke-width="20.176" stroke-linecap="round" stroke-linejoin="round" stroke-miterlimit="10" stroke-dasharray="none" stroke-opacity="" data-original="#000000" opacity="1"></path><path d="m0 0 111.487 29.636c5.726 1.53 10.431-2.239 10.431-8.387V-5.525c0-6.121-4.705-12.381-10.431-13.912L0-49.102c-5.727-1.529-10.403 2.239-10.403 8.387v26.775C-10.403-7.792-5.727-1.53 0 0Z" style="stroke-width:20.176;stroke-linecap:round;stroke-linejoin:round;stroke-miterlimit:10;stroke-dasharray:none;stroke-opacity:1" transform="translate(88.917 467.022)" fill="none" stroke="#f07777" stroke-width="20.176" stroke-linecap="round" stroke-linejoin="round" stroke-miterlimit="10" stroke-dasharray="none" stroke-opacity="" data-original="#000000" opacity="1"></path><path d="M0 0v-117.014" style="stroke-width:20.176;stroke-linecap:round;stroke-linejoin:round;stroke-miterlimit:10;stroke-dasharray:none;stroke-opacity:1" transform="translate(78.514 439.708)" fill="none" stroke="#f07777" stroke-width="20.176" stroke-linecap="round" stroke-linejoin="round" stroke-miterlimit="10" stroke-dasharray="none" stroke-opacity="" data-original="#000000" opacity="1"></path><path d="M0 0v-104.888" style="stroke-width:20.176;stroke-linecap:round;stroke-linejoin:round;stroke-miterlimit:10;stroke-dasharray:none;stroke-opacity:1" transform="translate(210.835 474.897)" fill="none" stroke="#f07777" stroke-width="20.176" stroke-linecap="round" stroke-linejoin="round" stroke-miterlimit="10" stroke-dasharray="none" stroke-opacity="" data-original="#000000" opacity="1"></path><path d="M0 0c18.539 0 33.647 12.863 33.647 28.645 0 15.781-15.108 28.644-33.647 28.644-18.539 0-33.647-12.863-33.647-28.644C-33.647 12.863-18.539 0 0 0Z" style="stroke-width:20.176;stroke-linecap:round;stroke-linejoin:round;stroke-miterlimit:10;stroke-dasharray:none;stroke-opacity:1" transform="translate(44.866 291.272)" fill="none" stroke="#f07777" stroke-width="20.176" stroke-linecap="round" stroke-linejoin="round" stroke-miterlimit="10" stroke-dasharray="none" stroke-opacity="" data-original="#000000" opacity="1"></path><path d="M0 0c18.566 0 33.646-12.807 33.646-28.616 0-15.81-15.08-28.645-33.646-28.645-18.596 0-33.647 12.835-33.647 28.645C-33.647-12.807-18.596 0 0 0Z" style="stroke-width:20.176;stroke-linecap:round;stroke-linejoin:round;stroke-miterlimit:10;stroke-dasharray:none;stroke-opacity:1" transform="translate(177.189 398.626)" fill="none" stroke="#f07777" stroke-width="20.176" stroke-linecap="round" stroke-linejoin="round" stroke-miterlimit="10" stroke-dasharray="none" stroke-opacity="" data-original="#000000" opacity="1"></path><path d="m0 0 12.104 12.041 73.899 70.152M7.597 160.562-218.495-77.377c-10.999-11.588-11.282-29.777 0-41.082l25.37-25.33c11.281-11.305 29.509-10.993 41.074 0l86.003 81.882" style="stroke-width:20.176;stroke-linecap:round;stroke-linejoin:round;stroke-miterlimit:10;stroke-dasharray:none;stroke-opacity:1" transform="translate(282.92 203.441)" fill="none" stroke="#f07777" stroke-width="20.176" stroke-linecap="round" stroke-linejoin="round" stroke-miterlimit="10" stroke-dasharray="none" stroke-opacity="" data-original="#000000" opacity="1"></path><path d="m0 0-138.842 138.746c-9.383 9.378-24.718 9.378-34.1 0-9.383-9.379-9.383-24.706 0-34.085L-34.13-34.084c9.383-9.378 24.747-9.378 34.13 0C9.383-24.734 9.383-9.378 0 0z" style="stroke-width:20.176;stroke-linecap:round;stroke-linejoin:round;stroke-miterlimit:10;stroke-dasharray:none;stroke-opacity:1" transform="translate(481.177 337.427)" fill="none" stroke="#f07777" stroke-width="20.176" stroke-linecap="round" stroke-linejoin="round" stroke-miterlimit="10" stroke-dasharray="none" stroke-opacity="" data-original="#000000" opacity="1"></path><path d="M0 0c-26.532-41.479-21.657-97.238 14.627-133.504 36.255-36.238 92.041-41.111 133.54-14.592m32.826 32.782c26.504 41.479 21.656 97.238-14.627 133.503C130.082 54.427 74.324 59.3 32.797 32.781" style="stroke-width:20.176;stroke-linecap:round;stroke-linejoin:round;stroke-miterlimit:10;stroke-dasharray:none;stroke-opacity:1" transform="translate(304.209 447.415)" fill="none" stroke="#f07777" stroke-width="20.176" stroke-linecap="round" stroke-linejoin="round" stroke-miterlimit="10" stroke-dasharray="none" stroke-opacity="" data-original="#000000" opacity="1"></path><path d="M0 0c25.823 0 46.885 17.935 46.885 39.921S25.823 79.842 0 79.842c-25.853 0-46.914-17.935-46.914-39.921S-25.853 0 0 0Z" style="stroke-width:20.176;stroke-linecap:round;stroke-linejoin:round;stroke-miterlimit:10;stroke-dasharray:none;stroke-opacity:1" transform="translate(373.573 29.96)" fill="none" stroke="#f07777" stroke-width="20.176" stroke-linecap="round" stroke-linejoin="round" stroke-miterlimit="10" stroke-dasharray="none" stroke-opacity="" data-original="#000000" opacity="1"></path><path d="m0 0 .142.17" style="stroke-width:20.176;stroke-linecap:round;stroke-linejoin:round;stroke-miterlimit:10;stroke-dasharray:none;stroke-opacity:1" transform="translate(249.755 172.474)" fill="none" stroke="#f07777" stroke-width="20.176" stroke-linecap="round" stroke-linejoin="round" stroke-miterlimit="10" stroke-dasharray="none" stroke-opacity="" data-original="#000000" opacity="1"></path></g></g></svg>